<svg width="79" height="92" viewBox="0 0 79 92" fill="none" xmlns="http://www.w3.org/2000/svg">
<g filter="url(#filter0_d_1_26689)">
<path fill-rule="evenodd" clip-rule="evenodd" d="M5.7562 49.0834C9.3043 46.0341 14.3813 48.1088 17.4111 51.6343C19.7549 54.3615 18.5103 58.3714 15.7656 60.7302C12.925 63.1714 8.63786 64.0812 6.21221 61.2588C3.11861 57.6591 2.13343 52.1968 5.7562 49.0834Z" fill="#8A441E"/>
<path fill-rule="evenodd" clip-rule="evenodd" d="M5.7562 49.0834C9.3043 46.0341 14.3813 48.1088 17.4111 51.6343C19.7549 54.3615 18.5103 58.3714 15.7656 60.7302C12.925 63.1714 8.63786 64.0812 6.21221 61.2588C3.11861 57.6591 2.13343 52.1968 5.7562 49.0834Z" stroke="black" stroke-width="0.5"/>
</g>
<g filter="url(#filter1_d_1_26689)">
<path fill-rule="evenodd" clip-rule="evenodd" d="M7.43375 20.5999C12.0159 16.662 18.5725 19.3414 22.4853 23.8943C25.5122 27.4163 23.9048 32.5948 20.3602 35.6411C16.6918 38.7937 11.1552 39.9687 8.02266 36.3236C4.02747 31.6749 2.75518 24.6207 7.43375 20.5999Z" fill="#8A441E"/>
<path fill-rule="evenodd" clip-rule="evenodd" d="M7.43375 20.5999C12.0159 16.662 18.5725 19.3414 22.4853 23.8943C25.5122 27.4163 23.9048 32.5948 20.3602 35.6411C16.6918 38.7937 11.1552 39.9687 8.02266 36.3236C4.02747 31.6749 2.75518 24.6207 7.43375 20.5999Z" stroke="black" stroke-width="0.5"/>
</g>
<g filter="url(#filter2_d_1_26689)">
<path fill-rule="evenodd" clip-rule="evenodd" d="M35.1599 0.665919C41.5761 0.231852 45.4552 6.69629 45.8865 13.0716C46.2201 18.0033 41.5481 21.3916 36.5848 21.7273C31.4481 22.0748 25.9804 19.5456 25.6351 14.4416C25.1947 7.93217 28.6088 1.10912 35.1599 0.665919Z" fill="#8A441E"/>
<path fill-rule="evenodd" clip-rule="evenodd" d="M35.1599 0.665919C41.5761 0.231852 45.4552 6.69629 45.8865 13.0716C46.2201 18.0033 41.5481 21.3916 36.5848 21.7273C31.4481 22.0748 25.9804 19.5456 25.6351 14.4416C25.1947 7.93217 28.6088 1.10912 35.1599 0.665919Z" stroke="black" stroke-width="0.5"/>
</g>
<g filter="url(#filter3_d_1_26689)">
<path fill-rule="evenodd" clip-rule="evenodd" d="M67.0399 11.1919C73.8582 14.052 74.514 22.6951 71.6721 29.47C69.4737 34.7108 62.9257 35.7858 57.6513 33.5733C52.1927 31.2835 47.8763 25.8664 50.1515 20.4425C53.0532 13.5251 60.0781 8.27152 67.0399 11.1919Z" fill="#8A441E"/>
<path fill-rule="evenodd" clip-rule="evenodd" d="M67.0399 11.1919C73.8582 14.052 74.514 22.6951 71.6721 29.47C69.4737 34.7108 62.9257 35.7858 57.6513 33.5733C52.1927 31.2835 47.8763 25.8664 50.1515 20.4425C53.0532 13.5251 60.0781 8.27152 67.0399 11.1919Z" stroke="black" stroke-width="0.5"/>
</g>
<g filter="url(#filter4_d_1_26689)">
<path fill-rule="evenodd" clip-rule="evenodd" d="M25.7827 49.7804C27.8327 42.2114 24.4239 31.1336 31.7035 28.2184C38.9934 25.2992 43.9312 36.131 50.9183 39.7149C58.1276 43.4127 68.8318 41.5253 72.1004 48.939C75.7696 57.2615 71.9219 67.1765 66.1103 74.1731C60.1746 81.319 51.2843 85.6926 42.0097 85.165C32.9383 84.6489 23.7558 79.8069 19.9683 71.5479C16.6746 64.3657 23.7171 57.4071 25.7827 49.7804Z" fill="#8A441E"/>
<path fill-rule="evenodd" clip-rule="evenodd" d="M25.7827 49.7804C27.8327 42.2114 24.4239 31.1336 31.7035 28.2184C38.9934 25.2992 43.9312 36.131 50.9183 39.7149C58.1276 43.4127 68.8318 41.5253 72.1004 48.939C75.7696 57.2615 71.9219 67.1765 66.1103 74.1731C60.1746 81.319 51.2843 85.6926 42.0097 85.165C32.9383 84.6489 23.7558 79.8069 19.9683 71.5479C16.6746 64.3657 23.7171 57.4071 25.7827 49.7804Z" stroke="black" stroke-width="0.5"/>
</g>
<defs>
<filter id="filter0_d_1_26689" x="0.186983" y="47.356" width="18.7079" height="17.8984" filterUnits="userSpaceOnUse" color-interpolation-filters="sRGB">
<feFlood flood-opacity="0" result="BackgroundImageFix"/>
<feColorMatrix in="SourceAlpha" type="matrix" values="0 0 0 0 0 0 0 0 0 0 0 0 0 0 0 0 0 0 127 0" result="hardAlpha"/>
<feOffset dx="-3" dy="2"/>
<feComposite in2="hardAlpha" operator="out"/>
<feColorMatrix type="matrix" values="0 0 0 0 0 0 0 0 0 0 0 0 0 0 0 0 0 0 0.25 0"/>
<feBlend mode="normal" in2="BackgroundImageFix" result="effect1_dropShadow_1_26689"/>
<feBlend mode="normal" in="SourceGraphic" in2="effect1_dropShadow_1_26689" result="shape"/>
</filter>
<filter id="filter1_d_1_26689" x="1.18863" y="18.4417" width="23.14" height="22.3865" filterUnits="userSpaceOnUse" color-interpolation-filters="sRGB">
<feFlood flood-opacity="0" result="BackgroundImageFix"/>
<feColorMatrix in="SourceAlpha" type="matrix" values="0 0 0 0 0 0 0 0 0 0 0 0 0 0 0 0 0 0 127 0" result="hardAlpha"/>
<feOffset dx="-3" dy="2"/>
<feComposite in2="hardAlpha" operator="out"/>
<feColorMatrix type="matrix" values="0 0 0 0 0 0 0 0 0 0 0 0 0 0 0 0 0 0 0.25 0"/>
<feBlend mode="normal" in2="BackgroundImageFix" result="effect1_dropShadow_1_26689"/>
<feBlend mode="normal" in="SourceGraphic" in2="effect1_dropShadow_1_26689" result="shape"/>
</filter>
<filter id="filter2_d_1_26689" x="22.3473" y="0.395264" width="23.8061" height="23.6135" filterUnits="userSpaceOnUse" color-interpolation-filters="sRGB">
<feFlood flood-opacity="0" result="BackgroundImageFix"/>
<feColorMatrix in="SourceAlpha" type="matrix" values="0 0 0 0 0 0 0 0 0 0 0 0 0 0 0 0 0 0 127 0" result="hardAlpha"/>
<feOffset dx="-3" dy="2"/>
<feComposite in2="hardAlpha" operator="out"/>
<feColorMatrix type="matrix" values="0 0 0 0 0 0 0 0 0 0 0 0 0 0 0 0 0 0 0.25 0"/>
<feBlend mode="normal" in2="BackgroundImageFix" result="effect1_dropShadow_1_26689"/>
<feBlend mode="normal" in="SourceGraphic" in2="effect1_dropShadow_1_26689" result="shape"/>
</filter>
<filter id="filter3_d_1_26689" x="46.2809" y="10.1174" width="27.2264" height="26.7913" filterUnits="userSpaceOnUse" color-interpolation-filters="sRGB">
<feFlood flood-opacity="0" result="BackgroundImageFix"/>
<feColorMatrix in="SourceAlpha" type="matrix" values="0 0 0 0 0 0 0 0 0 0 0 0 0 0 0 0 0 0 127 0" result="hardAlpha"/>
<feOffset dx="-3" dy="2"/>
<feComposite in2="hardAlpha" operator="out"/>
<feColorMatrix type="matrix" values="0 0 0 0 0 0 0 0 0 0 0 0 0 0 0 0 0 0 0.25 0"/>
<feBlend mode="normal" in2="BackgroundImageFix" result="effect1_dropShadow_1_26689"/>
<feBlend mode="normal" in="SourceGraphic" in2="effect1_dropShadow_1_26689" result="shape"/>
</filter>
<filter id="filter4_d_1_26689" x="15.8545" y="27.4741" width="57.9339" height="59.9839" filterUnits="userSpaceOnUse" color-interpolation-filters="sRGB">
<feFlood flood-opacity="0" result="BackgroundImageFix"/>
<feColorMatrix in="SourceAlpha" type="matrix" values="0 0 0 0 0 0 0 0 0 0 0 0 0 0 0 0 0 0 127 0" result="hardAlpha"/>
<feOffset dx="-3" dy="2"/>
<feComposite in2="hardAlpha" operator="out"/>
<feColorMatrix type="matrix" values="0 0 0 0 0 0 0 0 0 0 0 0 0 0 0 0 0 0 0.25 0"/>
<feBlend mode="normal" in2="BackgroundImageFix" result="effect1_dropShadow_1_26689"/>
<feBlend mode="normal" in="SourceGraphic" in2="effect1_dropShadow_1_26689" result="shape"/>
</filter>
</defs>
</svg>
